<svg version="1.1" height="24px" xmlns="http://www.w3.org/2000/svg" xmlns:xlink="http://www.w3.org/1999/xlink" x="0px" y="0px"
	 viewBox="0 0 376.4 100.9" style="enable-background:new 0 0 376.4 100.9;" xml:space="preserve">
<path style="fill:#FFFFFF;" d="M50.4,0C22.6,0,0,22.6,0,50.4c0,27.9,22.6,50.4,50.4,50.4c27.9,0,50.4-22.6,50.4-50.4
	C100.9,22.6,78.3,0,50.4,0z M73.7,55.3c-5.1,3.7-10.2,7.3-15.2,11c-6.7,4.8-13.4,9.6-20.1,14.5c-1.6,1.2-3.2,1.5-4.8,0.3
	c-1.7-1.2-1.9-2.9-1.1-5.2l7.2-17.4L56.2,52L29,52.5c-1.7,0.1-3.1-0.8-3.6-2.4c-0.5-1.9,0.3-3.3,1.9-4.5c5.7-4.1,11.4-8.3,17.2-12.5
	c6-4.4,12.1-8.7,18.2-13.1c2.4-1.7,4.9-1.3,5.8,1.1c0.4,1,0.3,2.4-0.1,3.4L58.7,47l13,1.1c2,0.1,3.2,1.3,3.7,3.1
	C75.9,52.9,75,54.3,73.7,55.3z"/>
<path style="fill:#E50B14;" d="M-105.3-43.1"/>
<g>
	<path style="fill:#FFFFFF;" d="M135.7,54.6v15.1H128V25.9h17.3c8.8,0,14.5,5.8,14.5,14.3s-5.8,14.4-14.5,14.4H135.7z M135.7,32.7
		v15.1h8c5.3,0,8.1-2.8,8.1-7.6s-2.9-7.4-8-7.4h-8.1V32.7z"/>
	<path style="fill:#FFFFFF;" d="M162.4,61.3c0-5.5,4-8.9,11-9.4l8.9-0.7v-0.7c0-4-2.4-5.6-6.1-5.6c-4.3,0-6.7,1.8-6.7,4.9h-6.2
		c0-6.4,5.3-10.6,13.3-10.6s12.9,4.3,12.9,12.5v18H183l-0.5-4.4c-1.3,3.1-5.3,5.2-9.9,5.2C166.3,70.5,162.4,66.9,162.4,61.3z
		 M182.3,57.7v-1.6l-6.2,0.5c-4.6,0.4-6.3,1.9-6.3,4.3c0,2.7,1.8,4,5.1,4C179.5,65,182.3,62.3,182.3,57.7z"/>
	<path style="fill:#FFFFFF;" d="M207.5,39.1c4.4,0,7.9,1.9,9.7,5l0.4-4.1h6.8v28.1c0,9.9-5.9,16.1-15.5,16.1
		c-8.5,0-14.3-4.9-15.2-12.8h7.3c0.5,3.8,3.4,6.1,7.9,6.1c5,0,8.3-3.2,8.3-8.1v-4.9c-1.9,2.8-5.5,4.5-9.8,4.5
		c-8.4,0-13.9-6.3-13.9-14.9C193.4,45.6,199.1,39.1,207.5,39.1z M208.8,62.8c5,0,8.2-3.5,8.2-8.7c0-5-3.1-8.5-8.2-8.5
		c-4.9,0-8,3.7-8,8.5C200.8,59.1,204,62.8,208.8,62.8z"/>
	<path style="fill:#FFFFFF;" d="M228.7,54.9c0-9.3,6.1-15.7,14.8-15.7c8.9,0,14.5,5.9,14.5,15.2v2.2l-22.3,0.1
		c0.5,5.2,3.3,7.9,8.2,7.9c4,0,6.7-1.6,7.5-4.4h6.8c-1.3,6.5-6.7,10.4-14.4,10.4C234.9,70.5,228.7,64.1,228.7,54.9z M235.9,52h14.9
		c0-4.1-2.8-6.8-7.2-6.8S236.6,47.5,235.9,52z"/>
	<path style="fill:#FFFFFF;" d="M263.5,25.9H281c8.6,0,13.9,4.5,13.9,11.8c0,4.9-2.2,8.3-6.3,10.1c4.6,1.5,7,5,7,10.1
		c0,7.5-5.2,11.9-14.3,11.9h-17.8L263.5,25.9L263.5,25.9z M271.1,32.7v11.9h9.3c4.2,0,6.5-2.2,6.5-6.1c0-3.8-2.4-5.8-6.7-5.8H271.1z
		 M271.1,51.1V63h9.8c4.3,0,6.7-2.1,6.7-6.1c0-3.7-2.5-5.8-6.7-5.8C280.9,51.1,271.1,51.1,271.1,51.1z"/>
	<path style="fill:#FFFFFF;" d="M314,39.3c9.2,0,15.8,6.4,15.8,15.6s-6.7,15.6-15.8,15.6s-15.8-6.4-15.8-15.6
		C298.2,45.6,304.9,39.3,314,39.3z M314,63.9c5,0,8.5-3.7,8.5-9.1s-3.5-9.1-8.5-9.1s-8.5,3.7-8.5,9.1C305.5,60.3,309,63.9,314,63.9z
		"/>
	<path style="fill:#FFFFFF;" d="M334.3,69.7V25.1h7.3v44.6H334.3z"/>
	<path style="fill:#FFFFFF;" d="M350.5,69.7V46.2h-5.7v-6.1h5.7v-9.2h7.3v9.2h5.8v6.1h-5.8v23.5H350.5z"/>
	<path style="fill:#FFFFFF;" d="M366.7,65.7c0-2.6,2.2-4.8,4.9-4.8c2.6,0,4.9,2.2,4.9,4.8s-2.2,4.7-4.9,4.7
		C368.9,70.5,366.7,68.3,366.7,65.7z"/>
</g>
</svg>
